<svg width="95" height="98" xmlns="http://www.w3.org/2000/svg">
 <defs>
  <style>.cls-1{isolation:isolate;}.cls-2{fill:#0c1531;}.cls-3{fill:#256835;}.cls-4{fill:#6fbd49;}.cls-5{fill:#646464;}.cls-6{fill:#2e4645;}.cls-7{fill:#fe9400;}.cls-8{mix-blend-mode:soft-light;}.cls-9{fill:#28d4f3;}.cls-10{fill:#261e54;}.cls-11{fill:#f0e1c3;}.cls-12{fill:#d1fd96;}</style>
 </defs>
 <g>
  <g stroke="null" id="svg_1" class="cls-1">
   <g stroke="null" id="图层_1">
    <rect stroke="null" id="svg_2" height="9.871301" width="3.109745" y="29.825663" x="41.280512" class="cls-2"/>
    <rect stroke="null" id="svg_3" height="9.814241" width="3.109745" y="29.825663" x="51.46564" class="cls-2"/>
    <rect stroke="null" id="svg_4" height="9.643062" width="42.22406" y="48.255895" x="26.815918" class="cls-3"/>
    <path stroke="null" id="svg_5" d="m66.557889,48.284425l-37.25988,0l5.363597,-7.988336a1.426489,1.426489 0 0 1 1.25531,-0.998542l23.993537,0a1.426489,1.426489 0 0 1 1.25531,0.998542l5.392127,7.988336z" class="cls-4"/>
    <path stroke="null" id="svg_6" d="m18.000219,59.097208l6.675966,25.163257a1.169721,1.169721 0 0 0 1.112661,0.884423l43.793198,0a1.169721,1.169721 0 0 0 1.112661,-0.884423l6.790085,-25.163257a1.19825,1.19825 0 0 0 -1.112661,-1.512078l-57.401898,0a1.19825,1.19825 0 0 0 -0.970012,1.512078zm42.081411,17.117862l-24.678251,0a1.141191,1.141191 0 0 1 -0.998542,-0.599125l-7.132443,-12.039563c-0.456476,-0.798834 0,-3.052685 0.998542,-3.052685l38.943137,0c0.884423,0 1.455018,2.253852 0.998542,3.052685l-7.132443,12.039563a1.141191,1.141191 0 0 1 -0.998542,0.456476l0,0.142649z" class="cls-4"/>
    <polygon stroke="null" id="svg_7" points="37.400463392665,73.73297770167603 57.99895836473529,73.73297770167603 64.70345549101971,62.4637216688014 30.667438563822586,62.4637216688014 37.400463392665,73.73297770167603 " class="cls-4"/>
    <rect stroke="null" id="svg_8" ry="1" rx="1" height="40.512274" width="16.547267" y="57.299832" x="77.912737" class="cls-2"/>
    <rect stroke="null" id="svg_9" ry="0.17" rx="0.17" height="1.055602" width="15.177838" y="60.837524" x="78.597452" class="cls-5"/>
    <rect stroke="null" id="svg_10" ry="0.17" rx="0.17" height="1.055602" width="15.177838" y="64.403745" x="78.597452" class="cls-5"/>
    <rect stroke="null" id="svg_11" ry="0.17" rx="0.17" height="1.055602" width="15.177838" y="67.941437" x="78.597452" class="cls-5"/>
    <rect stroke="null" id="svg_12" ry="0.17" rx="0.17" height="1.055602" width="15.177838" y="71.479128" x="78.597452" class="cls-5"/>
    <rect stroke="null" id="svg_13" ry="0.17" rx="0.17" height="1.055602" width="15.177838" y="75.04535" x="78.597452" class="cls-5"/>
    <rect stroke="null" id="svg_14" ry="0.17" rx="0.17" height="1.055602" width="15.177838" y="78.583041" x="78.597452" class="cls-5"/>
    <rect stroke="null" id="svg_15" ry="0.17" rx="0.17" height="1.055602" width="15.177838" y="82.149262" x="78.597452" class="cls-5"/>
    <rect stroke="null" id="svg_16" ry="0.17" rx="0.17" height="1.055602" width="15.177838" y="85.686954" x="78.597452" class="cls-5"/>
    <rect stroke="null" id="svg_17" ry="0.17" rx="0.17" height="1.055602" width="15.177838" y="89.224645" x="78.597452" class="cls-5"/>
    <rect stroke="null" id="svg_18" ry="0.17" rx="0.17" height="1.055602" width="15.177838" y="92.790867" x="78.597452" class="cls-5"/>
    <rect stroke="null" id="svg_19" ry="1" rx="1" height="40.512274" width="16.547267" y="57.128654" x="0.54" class="cls-2"/>
    <rect stroke="null" id="svg_20" ry="0.17" rx="0.17" height="1.055602" width="15.177838" y="60.694875" x="1.224714" class="cls-5"/>
    <rect stroke="null" id="svg_21" ry="0.17" rx="0.17" height="1.055602" width="15.177838" y="64.232567" x="1.224714" class="cls-5"/>
    <rect stroke="null" id="svg_22" ry="0.17" rx="0.17" height="1.055602" width="15.177838" y="67.798788" x="1.224714" class="cls-5"/>
    <rect stroke="null" id="svg_23" ry="0.17" rx="0.17" height="1.055602" width="15.177838" y="71.336479" x="1.224714" class="cls-5"/>
    <rect stroke="null" id="svg_24" ry="0.17" rx="0.17" height="1.055602" width="15.177838" y="74.874171" x="1.224714" class="cls-5"/>
    <rect stroke="null" id="svg_25" ry="0.17" rx="0.17" height="1.055602" width="15.177838" y="78.440392" x="1.224714" class="cls-5"/>
    <rect stroke="null" id="svg_26" ry="0.17" rx="0.17" height="1.055602" width="15.177838" y="81.978084" x="1.224714" class="cls-5"/>
    <rect stroke="null" id="svg_27" ry="0.17" rx="0.17" height="1.055602" width="15.177838" y="85.515775" x="1.224714" class="cls-5"/>
    <rect stroke="null" id="svg_28" ry="0.17" rx="0.17" height="1.055602" width="15.177838" y="89.081997" x="1.224714" class="cls-5"/>
    <rect stroke="null" id="svg_29" ry="0.17" rx="0.17" height="1.055602" width="15.177838" y="92.619688" x="1.224714" class="cls-5"/>
    <circle stroke="null" id="svg_30" r="1.084132" cy="82.605739" cx="27.500633" class="cls-6"/>
    <circle stroke="null" id="svg_31" r="1.084132" cy="82.605739" cx="31.352152" class="cls-6"/>
    <circle stroke="null" id="svg_32" r="1.084132" cy="82.605739" cx="44.104959" class="cls-6"/>
    <circle stroke="null" id="svg_33" r="1.084132" cy="82.605739" cx="47.72824" class="cls-6"/>
    <circle stroke="null" id="svg_34" r="1.084132" cy="82.605739" cx="51.380051" class="cls-6"/>
    <circle stroke="null" id="svg_35" r="1.084132" cy="82.605739" cx="64.589334" class="cls-6"/>
    <circle stroke="null" id="svg_36" r="1.084132" cy="82.605739" cx="68.440853" class="cls-6"/>
    <path stroke="null" id="svg_37" d="m47.72824,83.376042a4.507704,4.507704 0 1 0 4.507704,4.507704a4.507704,4.507704 0 0 0 -4.507704,-4.507704zm0,6.21949a1.626197,1.626197 0 0 1 -1.626197,-1.626197l3.280924,0a1.626197,1.626197 0 0 1 -1.654727,1.626197z" class="cls-7"/>
    <ellipse stroke="null" id="svg_38" transform="matrix(1.2138373852923794,-2.5818746635280987,2.5818746635280987,1.2138373852923794,-115.18577572558273,8.536484549492663) " ry="0.99" rx="0.69" cy="63.47" cx="-0.03" class="cls-8"/>
    <rect stroke="null" id="svg_39" ry="0.72" rx="0.72" height="30.526854" width="40.483744" y="0.44" x="27.700341" class="cls-4"/>
    <rect stroke="null" id="svg_40" ry="0.63" rx="0.63" height="27.959175" width="38.030184" y="1.72384" x="28.927121" class="cls-2"/>
    <rect stroke="null" id="svg_41" height="8.273633" width="3.223864" y="10.225711" x="34.262189" class="cls-9"/>
    <rect stroke="null" id="svg_42" height="8.273633" width="3.223864" y="10.225711" x="58.369845" class="cls-9"/>
    <rect stroke="null" id="svg_43" transform="matrix(0,-2.8529770374298096,2.8529770374298096,0,-45.99205682623001,97.4697512240544) " height="3.48" width="1.13" y="31.260001" x="26" class="cls-9"/>
    <rect stroke="null" id="svg_44" height="3.309453" width="3.309453" y="18.756113" x="53.091837" class="cls-9"/>
    <rect stroke="null" id="svg_45" height="3.309453" width="3.309453" y="18.756113" x="39.882553" class="cls-9"/>
    <rect stroke="null" id="svg_46" transform="matrix(2.133781337661249,1.893793858673732,-1.893793858673732,2.133781337661249,-12.523596956985228,-45.73438223217752) " height="2" width="0.71" y="3.86" x="45.079999" class="cls-2"/>
    <rect stroke="null" id="svg_47" transform="matrix(2.849247425630469,0.145832382000423,-0.145832382000423,2.849247425630469,-1.2077717734659454,-0.9315131421852902) " height="2.94" width="0.71" y="11.22" x="28.93" class="cls-2"/>
    <rect stroke="null" id="svg_48" height="9.272175" width="1.825905" y="48.255895" x="69.039979" class="cls-10"/>
    <path stroke="null" id="svg_49" d="m80.594536,35.816915a3.965638,3.965638 0 0 0 4.165346,-3.76593a3.794459,3.794459 0 0 0 -1.997084,-3.366513l0,1.882965a2.339441,2.339441 0 0 1 0.542066,1.540608a2.596209,2.596209 0 0 1 -5.192418,0a2.339441,2.339441 0 0 1 0.627655,-1.540608l0,-1.797376a3.822989,3.822989 0 0 0 -2.139733,3.309453a3.965638,3.965638 0 0 0 3.994168,3.7374z" class="cls-2"/>
    <circle stroke="null" id="svg_50" r="3.65181" cy="45.830865" cx="78.882749" class="cls-11"/>
    <path stroke="null" id="svg_51" d="m70.865884,48.284425a4.536233,4.536233 0 0 1 0,9.072467" class="cls-11"/>
    <rect stroke="null" id="svg_52" transform="matrix(-2.1337814637481975,1.8937937166086416,-1.8937937166086416,-2.1337814637481975,174.9699101963514,83.62218288305114) " height="2" width="0.71" y="43.56" x="32.439999" class="cls-2"/>
    <rect stroke="null" id="svg_53" transform="matrix(-2.771098290579353,0.6785957854643374,-0.6785957854643374,-2.771098290579353,96.71213502759485,139.85784890515086) " height="2.94" width="0.71" y="39.459999" x="19.26" class="cls-2"/>
    <rect stroke="null" id="svg_54" transform="matrix(-2.8529770374298096,0,0,-2.8529770374298096,106.61368969451773,214.01386973300833) " height="3.25" width="0.64" y="54.850002" x="27.970001" class="cls-10"/>
    <path stroke="null" id="svg_55" d="m13.578105,36.102213a3.965638,3.965638 0 0 1 -4.422114,-3.452102a3.794459,3.794459 0 0 1 1.768846,-3.509162l0.171179,1.797376a2.339441,2.339441 0 0 0 -0.427947,1.597667a2.51062,2.51062 0 0 0 2.852977,2.196792a2.51062,2.51062 0 0 0 2.367971,-2.653269a2.339441,2.339441 0 0 0 -0.827363,-1.512078l-0.171179,-1.797376a3.822989,3.822989 0 0 1 2.367971,3.138275a3.965638,3.965638 0 0 1 -3.68034,4.193876z" class="cls-2"/>
    <circle stroke="null" id="svg_56" r="3.651811" cy="45.830865" cx="16.944618" class="cls-11"/>
    <path stroke="null" id="svg_57" d="m24.961483,48.284425a4.536233,4.536233 0 1 0 0,9.072467" class="cls-11"/>
    <path stroke="null" id="svg_58" d="m42.421703,56.729237l2.225322,0a0.171179,0.171179 0 0 1 0.171179,0.171179l0,0.656185a0,0 0 0 1 0,0l-2.567679,0a0,0 0 0 1 0,0l0,-0.656185a0.171179,0.171179 0 0 1 0.171179,-0.171179z" class="cls-12"/>
    <path stroke="null" id="svg_59" d="m23.905882,56.729237l2.225322,0a0.171179,0.171179 0 0 1 0.171179,0.171179l0,0.656185a0,0 0 0 1 0,0l-2.567679,0a0,0 0 0 1 0,0l0,-0.656185a0.171179,0.171179 0 0 1 0.171179,-0.171179z" class="cls-12"/>
    <path stroke="null" id="svg_60" d="m51.779468,56.729237l2.225322,0a0.171179,0.171179 0 0 1 0.171179,0.171179l0,0.656185a0,0 0 0 1 0,0l-2.567679,0a0,0 0 0 1 0,0l0,-0.656185a0.171179,0.171179 0 0 1 0.171179,-0.171179z" class="cls-12"/>
    <path stroke="null" id="svg_61" d="m69.610574,56.729237l2.225322,0a0.171179,0.171179 0 0 1 0.171179,0.171179l0,0.656185a0,0 0 0 1 0,0l-2.567679,0a0,0 0 0 1 0,0l0,-0.656185a0.171179,0.171179 0 0 1 0.171179,-0.171179z" class="cls-12"/>
    <path stroke="null" id="svg_62" d="m65.274049,47.342942l2.196792,0a0.171179,0.171179 0 0 1 0.171179,0.171179l0,0.741774a0,0 0 0 1 0,0l-2.567679,0a0,0 0 0 1 0,0l0,-0.741774a0.171179,0.171179 0 0 1 0.199708,-0.171179z" class="cls-12"/>
    <path stroke="null" id="svg_63" d="m28.527705,47.342942l2.225322,0a0.171179,0.171179 0 0 1 0.171179,0.171179l0,0.741774a0,0 0 0 1 0,0l-2.567679,0a0,0 0 0 1 0,0l0,-0.741774a0.171179,0.171179 0 0 1 0.171179,-0.171179z" class="cls-12"/>
   </g>
  </g>
 </g>
</svg>
