<svg id="图层_1" data-name="图层 1" xmlns="http://www.w3.org/2000/svg" viewBox="0 0 113.88 30"><defs><style>.cls-1{fill:#fff;}.cls-2{fill:#221714;}.cls-3{fill:#22ac38;}</style></defs><title>启动页</title><path class="cls-1" d="M11.41,20.82c-1.22.1-5.18.85-7.88,5.66-3.56,6.35,14.15.89,15-.86C19,24.63,17.5,20.32,11.41,20.82Z"/><path class="cls-1" d="M11.51,20.8c-1.1.07-4.68.7-7.17,5.35C1,32.29,17.07,27.4,17.86,25.7,18.32,24.74,17,20.47,11.51,20.8Z"/><circle class="cls-1" cx="11.2" cy="1.87" r="1.62"/><path class="cls-2" d="M3.2,19.07h0Z"/><path class="cls-1" d="M21.7,11.4h-.43c-.9-4-5-7-10-7s-9.13,3-10,7a.48.48,0,0,0-.19,0H.71a.49.49,0,0,0-.49.49v4.2a.49.49,0,0,0,.49.49H1a.48.48,0,0,0,.2,0c.52,3,2.49,5.11,10,5.11s9.5-2.09,10-5.08h.43a.49.49,0,0,0,.49-.49v-4.2A.49.49,0,0,0,21.7,11.4Z"/><path class="cls-2" d="M19.47,19.07h0Z"/><path class="cls-1" d="M21.45,13.14c0,4.37,0,7.92-10.2,7.92S1,17.51,1,13.14s4.57-7.92,10.2-7.92S21.45,8.76,21.45,13.14Z"/><path class="cls-2" d="M18.14,10.16H18a54.86,54.86,0,0,1-6.78.39,54.86,54.86,0,0,1-6.78-.39H4.36a1.54,1.54,0,0,0-1.52,1.56v5c0,.86.66,1.37,1.52,1.56a31.89,31.89,0,0,0,6.89.57,32.6,32.6,0,0,0,6.89-.59c.85-.23,1.52-.7,1.52-1.56v-5A1.54,1.54,0,0,0,18.14,10.16Z"/><polygon class="cls-3" points="13.69 15.72 9.04 15.72 9.04 14.95 7.52 14.95 7.52 16.48 9.03 16.48 9.03 17.25 13.7 17.25 13.7 16.48 15.22 16.48 15.22 14.95 13.69 14.95 13.69 15.72"/><rect class="cls-3" x="4.56" y="11.78" width="1.52" height="3.33"/><rect class="cls-3" x="16.41" y="11.78" width="1.52" height="3.33"/><path class="cls-1" d="M2.23,25.9c-1,.7-2.07-2.47,2.77-3.66C8.8,21.31,7.64,22,2.23,25.9Z"/><path class="cls-1" d="M20.74,25c.5.35,1.73-1.82-2-2.85C15.5,21.23,17.38,22.59,20.74,25Z"/><path class="cls-1" d="M30,19.05h2.61a1.73,1.73,0,0,1,1.48.82l3.87,4.78a.89.89,0,0,0,1.26,0,1,1,0,0,0,0-1.24L35.3,18.65l.5-.1A3.77,3.77,0,0,0,39,14.47a4.16,4.16,0,0,0-1.38-3.35,5,5,0,0,0-3.47-1.23H29.63a1.31,1.31,0,0,0-1.42,1.42V24a.9.9,0,0,0,.86.93A.92.92,0,0,0,30,24Zm0-7.48h4c2.67,0,3.23,1.59,3.23,2.92s-.58,2.92-3.34,2.92H30Z"/><path class="cls-1" d="M50.64,17.55a4.18,4.18,0,0,0-1.46-3,4.9,4.9,0,0,0-3.34-1.16,5,5,0,0,0-3.34,1.16,4.28,4.28,0,0,0-1.46,3,24.83,24.83,0,0,0,0,3.12,4.5,4.5,0,0,0,1.49,3,4.71,4.71,0,0,0,3.31,1.2,4.8,4.8,0,0,0,3.33-1.2,4.38,4.38,0,0,0,1.47-3A25.19,25.19,0,0,0,50.64,17.55Zm-1.71,2.88a3.09,3.09,0,0,1-6.17,0,16.59,16.59,0,0,1,0-2.62,3.1,3.1,0,0,1,6.17,0A24.27,24.27,0,0,1,48.93,20.43Z"/><path class="cls-1" d="M61.62,17.57a4.15,4.15,0,0,0-4.43-4.18,7,7,0,0,0-2.78.62l-.43.19V10.73a.89.89,0,0,0-.86-.89.87.87,0,0,0-.86.89V23a.73.73,0,0,0,.31.63,7.78,7.78,0,0,0,1.79.89,7.59,7.59,0,0,0,2.52.42,4.4,4.4,0,0,0,4.74-4.28A14.5,14.5,0,0,0,61.62,17.57ZM59.92,20.4a2.82,2.82,0,0,1-3.07,2.88,5.35,5.35,0,0,1-2.73-.83L54,22.35v-6.5l.14-.09A5.35,5.35,0,0,1,57,15a2.62,2.62,0,0,1,2.87,2.74A25.53,25.53,0,0,1,59.92,20.4Z"/><path class="cls-1" d="M73,17.55a4.18,4.18,0,0,0-1.46-3,4.9,4.9,0,0,0-3.34-1.16,5,5,0,0,0-3.34,1.16,4.28,4.28,0,0,0-1.46,3,25,25,0,0,0,0,3.12,4.49,4.49,0,0,0,1.49,3,4.7,4.7,0,0,0,3.31,1.2,4.8,4.8,0,0,0,3.33-1.2,4.38,4.38,0,0,0,1.47-3A25.19,25.19,0,0,0,73,17.55Zm-1.71,2.88a3.09,3.09,0,0,1-6.17,0,16.67,16.67,0,0,1,0-2.62,3.1,3.1,0,0,1,6.17,0A24.7,24.7,0,0,1,71.28,20.43Z"/><path class="cls-1" d="M83.58,20.63C83.34,23.44,81.81,25,79,25a7.21,7.21,0,0,1-2.39-.44,8.75,8.75,0,0,1-1.77-.86.54.54,0,0,1-.22-.49V10.34c0-.31.13-.46.42-.46a.42.42,0,0,1,.4.46v4a9.21,9.21,0,0,1,3.69-.86c2.68,0,4.2,1.5,4.45,4.27A15.9,15.9,0,0,1,83.58,20.63Zm-.86-3.05a3.18,3.18,0,0,0-3.56-3.3,7.65,7.65,0,0,0-2.08.31,7.34,7.34,0,0,0-1.64.62v7.85a6.75,6.75,0,0,0,1.59.75,6.19,6.19,0,0,0,2,.35,3.36,3.36,0,0,0,3.72-3.39A15.53,15.53,0,0,0,82.72,17.57Z"/><path class="cls-1" d="M98.6,17.63c.24-2.81,1.77-4.36,4.58-4.36a7.21,7.21,0,0,1,2.39.44,8.75,8.75,0,0,1,1.77.86.54.54,0,0,1,.22.49V27.91c0,.31-.13.46-.42.46a.42.42,0,0,1-.4-.46v-4a9.22,9.22,0,0,1-3.69.86c-2.68,0-4.2-1.5-4.45-4.27A15.9,15.9,0,0,1,98.6,17.63Zm.86,3.05A3.18,3.18,0,0,0,103,24a7.65,7.65,0,0,0,2.08-.31,7.34,7.34,0,0,0,1.64-.62V15.19a6.75,6.75,0,0,0-1.59-.75,6.19,6.19,0,0,0-2-.35,3.36,3.36,0,0,0-3.72,3.39A15.53,15.53,0,0,0,99.46,20.68Z"/><path class="cls-1" d="M86,10.32V24.48c0,.29-.13.44-.4.44a.42.42,0,0,1-.42-.44V10.32c0-.29.13-.44.4-.44S86,10,86,10.32Z"/><path class="cls-1" d="M95.51,14.6a4.26,4.26,0,0,1,1.37,3.07,20.87,20.87,0,0,1,0,2.88A4.69,4.69,0,0,1,89,23.7a4.4,4.4,0,0,1-1.37-3.14c0-1,0-1.84,0-2.88A4.15,4.15,0,0,1,89,14.6a4.67,4.67,0,0,1,3.27-1.19A4.56,4.56,0,0,1,95.51,14.6Zm-7,6.08a3.76,3.76,0,0,0,7.5,0,18.15,18.15,0,0,0,0-3.12,3.77,3.77,0,0,0-7.5,0A24.27,24.27,0,0,0,88.52,20.69Z"/></svg>