<svg width="75.57" height="111.9" xmlns="http://www.w3.org/2000/svg">
 <defs>
  <style>.cls-1{fill:#8dc6b2;}.cls-1,.cls-3,.cls-4{stroke:#2d4544;stroke-miterlimit:10;stroke-width:0.9px;}.cls-2{fill:#447f63;}.cls-3,.cls-5,.cls-6{fill:#fff;}.cls-4{fill:#2aa239;}.cls-6{opacity:0.3;}.cls-7{fill:#221714;}.cls-8{fill:#28d4f3;}</style>
 </defs>
 <g>
  <title>Layer 1</title>
  <path id="svg_1" d="m25.29,71.1s-5.14,-3.13 -10,2.53s-8.23,19.13 6.12,23" class="cls-1"/>
  <path id="svg_2" d="m18.7,91.61c-0.84,2 -5.57,-1.31 -6.56,-3.1s0.45,5.66 8.84,7.56c0.56,0.13 -0.86,-7.88 -2.28,-4.46z" class="cls-2"/>
  <path id="svg_3" d="m55.29,70.91s2.17,-0.33 4.23,3.79s1.88,8.25 1.16,9.94s-3.06,6 -7.44,2.19c0,0 0.44,-11.4 1,-14.5c0.19,-1.29 1.05,-1.42 1.05,-1.42z" class="cls-3"/>
  <path id="svg_4" d="m23.18,98.69a61.13,61.13 0 0 0 -1.89,6.83c-0.22,1.71 5,4.74 6.88,5.13a12.49,12.49 0 0 0 7.5,-0.52c1.65,-0.58 5.1,-7.87 5.1,-7.87s-15.99,-4.11 -17.59,-3.57z" class="cls-3"/>
  <path id="svg_5" d="m41.61,102.98a59,59 0 0 0 0.18,6.16c0.29,1.18 6.57,3.69 12.3,1.34s1.89,-14.89 1.89,-14.89s-13.69,4.97 -14.37,7.39z" class="cls-3"/>
  <path id="svg_6" d="m25.76,71.06a36.72,36.72 0 0 0 -6.1,20.25c0.26,11.4 18.18,12.89 20.31,12.6c1.39,-0.19 19,0.15 19,-15.95s-6,-22 -6,-22l-26.28,1.49l-0.93,3.61z" class="cls-4"/>
  <path id="svg_7" d="m24.56,73.22s7,7.6 -1.39,12.76c-3.56,2.19 -3.59,3.26 -3.2,4.21c0.69,1.64 2.74,0.76 3.69,0.1c4.29,-3 11,-9.45 1.84,-19.28l-0.94,2.21z" class="cls-1"/>
  <rect id="svg_8" transform="rotate(-3.0999999046325684 -10.27999973297118,2.9700000286102344) " height="3.33" width="2.3" y="12.96" x="34.92" class="cls-4"/>
  <path id="svg_9" d="m41.46,5.58a5.42,5.42 0 1 1 -5.71,-5.13a5.43,5.43 0 0 1 5.71,5.13z" class="cls-4"/>
  <path id="svg_10" d="m39.39,5.69a3.35,3.35 0 1 1 -3.53,-3.16a3.34,3.34 0 0 1 3.53,3.16z" class="cls-5"/>
  <path id="svg_11" d="m39.89,72.3s-7.74,11.35 -4.42,17.89c4.38,8.63 12,9.1 17.33,7.45c2.7,-0.84 11.38,-7.45 -0.5,-27.29" class="cls-6"/>
  <path id="svg_12" d="m73.13,36.58l-1.1,0a1.42,1.42 0 0 0 -0.36,0.05c-3.38,-13.35 -17.58,-23.18 -34.38,-22.86s-30.74,10.87 -33.47,24.42a1.73,1.73 0 0 0 -0.64,-0.12l-1.11,0a1.66,1.66 0 0 0 -1.62,1.69l0.31,14.22a1.67,1.67 0 0 0 1.69,1.62l1.1,0a1.63,1.63 0 0 0 0.66,-0.15c2,10.15 8.79,17.11 34.28,16.57s32,-7.74 33.55,-17.92a2.2,2.2 0 0 0 0.36,0l1.11,0a1.66,1.66 0 0 0 1.62,-1.65l-0.31,-14.22a1.67,1.67 0 0 0 -1.69,-1.65z" class="cls-4"/>
  <path id="svg_13" d="m22.87,72.32s-3.09,3.08 0,9.25s8.56,13.88 11.14,14.88c2.14,0.84 8,1.44 9.18,-3.71a5.28,5.28 0 0 0 -1.28,-4.8c-3.65,-4 -13,-13.9 -16.36,-15.62c-1.74,-0.87 -2.68,0 -2.68,0z" class="cls-3"/>
  <path id="svg_14" d="m70.29,41.45c0.8,13.56 1.53,24.56 -26,26.19s-28.17,-9.37 -29,-22.93s10.87,-25.26 26,-26.19s28.14,9.38 29,22.93z" class="cls-5"/>
  <path id="svg_15" d="m63.29,31.45l-0.31,0a142.7,142.7 0 0 1 -19.83,1.9a141.42,141.42 0 0 1 -19.9,-0.71l-0.31,0c-2.45,0.08 -4.39,2.46 -4.3,5.29l0.5,16.65c0.09,2.84 2.06,4.49 4.61,5c0,0 6.87,1.7 20.23,1.3c13,-0.39 20.12,-2.57 20.12,-2.57c2.46,-0.82 4.38,-2.45 4.3,-5.29l-0.53,-16.57c-0.09,-2.86 -2.16,-5.12 -4.58,-5z" class="cls-7"/>
  <path id="svg_16" d="m20.04,21.22a13.56,13.56 0 0 0 -5.47,4.46c-0.74,1.09 1.08,1.92 2,0.67a11.37,11.37 0 0 1 4.43,-3.61c1,-0.47 0.56,-2.12 -0.96,-1.52z" class="cls-5"/>
  <path id="svg_17" d="m12.69,28.45a8.29,8.29 0 0 0 -1,1.59c-0.22,0.52 0.92,1.32 1.49,0.46a8,8 0 0 0 0.73,-1.28a0.75,0.75 0 0 0 -1.22,-0.77z" class="cls-5"/>
  <path id="svg_18" d="m63.29,31.63l-0.31,0a142.7,142.7 0 0 1 -19.83,1.9a141.42,141.42 0 0 1 -19.9,-0.71l-0.31,0c-2.45,0.08 -4.39,2.46 -4.3,5.29l0.5,16.65c0.09,2.84 2.06,4.49 4.61,5c0,0 6.87,1.7 20.23,1.3c13,-0.39 20.12,-2.57 20.12,-2.57c2.46,-0.82 4.38,-2.45 4.3,-5.29l-0.5,-16.59c-0.12,-2.79 -2.19,-5.05 -4.61,-4.98z" class="cls-7"/>
  <polygon id="svg_19" points="52.2 51.58 40.12 51.88 40.06 49.71 36.1 49.81 36.21 54.12 40.13 54.02 40.19 56.2 52.33 55.89 52.28 53.71 56.22 53.61 56.11 49.3 52.15 49.4 52.2 51.58" class="cls-8"/>
  <rect id="svg_20" transform="matrix(1,-0.03,0.03,1,-10.85,1.48) " height="9.41" width="3.97" y="40.53" x="38.02" class="cls-8"/>
  <rect id="svg_21" transform="rotate(-1.4600000381469727 -10.819999694824228,2.259999990463251) " height="9.41" width="3.97" y="42" x="58" class="cls-8"/>
 </g>
</svg>