<svg width="74.72" height="110.68" xmlns="http://www.w3.org/2000/svg">
 <defs>
  <style>.cls-1,.cls-4,.cls-5,.cls-8,.cls-9{fill:#fff;}.cls-1,.cls-2,.cls-4,.cls-5,.cls-6,.cls-7{stroke:#2d4544;stroke-miterlimit:10;}.cls-1{stroke-width:0.81px;}.cls-2,.cls-7{fill:#8dc6b2;}.cls-2,.cls-4,.cls-6{stroke-width:0.89px;}.cls-3{fill:#447f63;}.cls-5{stroke-width:0.96px;}.cls-6{fill:#2aa239;}.cls-7{stroke-width:0.83px;}.cls-8{opacity:0.3;}.cls-10{fill:#221714;}.cls-11{fill:#28d4f3;}</style>
 </defs>
 <g>
  <title>Layer 1</title>
  <path id="svg_1" d="m48.25,67.2s-2.39,3.05 1.09,8.08s8.9,10.37 11.78,11.71c1.89,0.88 7.34,0.33 7.85,-4.31a4.6,4.6 0 0 0 -1.72,-4c-3.76,-3 -13.19,-10 -16.58,-11.75a1.87,1.87 0 0 0 -2.42,0.27z" class="cls-1"/>
  <path id="svg_2" d="m24.25,68.95s-5.09,-3 -9.92,2.47s-8.12,18.57 6.06,22.4" class="cls-2"/>
  <path id="svg_3" d="m17.75,88.82c-0.83,2 -5.49,-1.29 -6.47,-3s0.84,5.83 8.73,7.35c0.55,0.08 -0.85,-7.62 -2.26,-4.35z" class="cls-3"/>
  <path id="svg_4" d="m39.73,98.68a54.49,54.49 0 0 0 -0.54,6c0.15,1.16 5.38,4.9 10.46,2.11c3.35,-1.83 5,-13.57 5,-13.57s-14.03,3.21 -14.92,5.46z" class="cls-4"/>
  <path id="svg_5" d="m42.69,98.6s2.28,5.92 2.39,8c0.17,3.28 -5.72,3.57 -7.73,3.6c-4.86,0.07 -6.7,-0.37 -8.36,-1.34s-6.13,-12.17 -6.13,-12.17s18.21,1.13 19.83,1.91z" class="cls-5"/>
  <path id="svg_6" d="m24.74,68.92s-6.3,8.59 -6,19.65s18,12.52 20.08,12.24c1.37,-0.19 18.77,0.14 18.77,-15.49s-5.91,-21.34 -5.91,-21.34l-26,1.43l-0.94,3.51z" class="cls-6"/>
  <path id="svg_7" d="m23.62,70.88s6.49,7 -1.23,11.61c-3.29,2 -2.87,3 -2.27,3.73a2,2 0 0 0 2.74,0.2c4,-2.68 10.17,-8.56 1.62,-17.55l-0.86,2.01z" class="cls-7"/>
  <path id="svg_8" d="m38.78,70.12s-7.66,11 -4.38,17.36c4.33,8.34 11.91,8.84 17.14,7.24c2.67,-0.81 11.26,-7.24 -0.49,-26.5" class="cls-8"/>
  <polygon id="svg_9" points="37.45 13.31 35.18 13.43 35 10.2 37.28 10.08 37.45 13.31" class="cls-6"/>
  <path id="svg_10" d="m40.99,5.42a5.36,5.36 0 0 1 -10.71,0.57a5.36,5.36 0 0 1 10.71,-0.57z" class="cls-6"/>
  <path id="svg_11" d="m38.94,5.53a3.31,3.31 0 1 1 -3.49,-3.07a3.3,3.3 0 0 1 3.49,3.07z" class="cls-9"/>
  <path id="svg_12" d="m72.31,35.52l-1.09,0a2,2 0 0 0 -0.36,0.05c-3.31,-13 -17.38,-22.57 -34,-22.22s-30.36,10.55 -33,23.71a1.56,1.56 0 0 0 -0.65,-0.11l-1.09,0a1.62,1.62 0 0 0 -1.6,1.64l0.3,13.8a1.62,1.62 0 0 0 1.67,1.57l1.09,0a1.52,1.52 0 0 0 0.65,-0.15c1.95,9.86 8.7,16.61 33.9,16.09s31.66,-7.52 33.18,-17.4a1.37,1.37 0 0 0 0.36,0l1.09,0a1.61,1.61 0 0 0 1.6,-1.63l-0.3,-13.81a1.63,1.63 0 0 0 -1.75,-1.54z" class="cls-6"/>
  <path id="svg_13" d="m69.44,40.25c0.8,13.17 1.52,23.84 -25.71,25.42s-27.8,-9.1 -28.59,-22.26s10.72,-24.59 25.72,-25.42s27.79,9.1 28.58,22.26z" class="cls-9"/>
  <path id="svg_14" d="m62.54,30.49l-0.31,0a143,143 0 0 1 -19.6,1.84a143,143 0 0 1 -19.67,-0.68l-0.31,0c-2.42,0.08 -4.34,2.39 -4.26,5.14l0.47,16.17c0.08,2.75 2,4.36 4.56,4.87c0,0 6.79,1.65 20,1.26c12.81,-0.38 19.89,-2.49 19.89,-2.49c2.44,-0.8 4.34,-2.38 4.26,-5.13l-0.5,-16.11c-0.05,-2.75 -2.11,-4.94 -4.53,-4.87z" class="cls-10"/>
  <path id="svg_15" d="m19.86,20.6a13.45,13.45 0 0 0 -5.41,4.33c-0.73,1.06 1.07,1.86 1.94,0.65a11.32,11.32 0 0 1 4.38,-3.5c0.97,-0.46 0.54,-2.06 -0.91,-1.48z" class="cls-9"/>
  <path id="svg_16" d="m12.54,27.58a7.36,7.36 0 0 0 -0.94,1.54c-0.22,0.5 0.9,1.28 1.47,0.45a9.13,9.13 0 0 0 0.72,-1.25c0.35,-0.68 -0.63,-1.38 -1.25,-0.74z" class="cls-9"/>
  <path id="svg_17" d="m26.45,69.58s3,3 0,9s-8.46,13.47 -11,14.45c-2.12,0.81 -7.86,1.4 -9.08,-3.6a5,5 0 0 1 1.27,-4.66c3.61,-3.85 12.84,-13.5 16.17,-15.17c1.71,-0.89 2.64,-0.02 2.64,-0.02z" class="cls-4"/>
  <path id="svg_18" d="m19.98,20.53a13.6,13.6 0 0 0 -5.41,4.29c-0.72,1.06 1.08,1.87 1.95,0.65a11.32,11.32 0 0 1 4.34,-3.46c1.06,-0.46 0.63,-2.06 -0.88,-1.48z" class="cls-9"/>
  <path id="svg_19" d="m12.72,27.51a7.39,7.39 0 0 0 -0.95,1.54c-0.22,0.5 0.91,1.28 1.47,0.45a7.89,7.89 0 0 0 0.72,-1.25c0.36,-0.68 -0.62,-1.38 -1.24,-0.74z" class="cls-9"/>
  <polygon id="svg_20" points="39.24 47.66 39.34 50.97 35.97 51.07 35.86 47.76 39.24 47.66" class="cls-11"/>
  <polygon id="svg_21" points="42.7 50.87 42.81 54.18 39.43 54.28 39.33 50.97 42.7 50.87" class="cls-11"/>
  <polygon id="svg_22" points="46.08 50.77 46.18 54.08 42.81 54.18 42.71 50.87 46.08 50.77" class="cls-11"/>
  <polygon id="svg_23" points="49.45 50.67 49.55 53.98 46.18 54.08 46.08 50.77 49.45 50.67" class="cls-11"/>
  <polygon id="svg_24" points="52.73 47.27 52.83 50.58 49.46 50.68 49.35 47.37 52.73 47.27" class="cls-11"/>
  <polygon id="svg_25" points="29.04 44.63 28.94 41.32 25.57 41.42 25.67 44.73 29.04 44.63" class="cls-11"/>
  <polygon id="svg_26" points="32.32 41.22 32.22 37.91 28.84 38.01 28.94 41.32 32.32 41.22" class="cls-11"/>
  <polygon id="svg_27" points="35.79 44.43 35.69 41.12 32.32 41.22 32.42 44.53 35.79 44.43" class="cls-11"/>
  <polygon id="svg_28" points="56.08 43.84 55.98 40.53 52.6 40.63 52.7 43.94 56.08 43.84" class="cls-11"/>
  <polygon id="svg_29" points="59.29 40.43 59.19 37.12 55.82 37.22 55.92 40.53 59.29 40.43" class="cls-11"/>
  <polygon id="svg_30" points="62.83 43.64 62.73 40.33 59.35 40.43 59.45 43.74 62.83 43.64" class="cls-11"/>
 </g>
</svg>