<svg id="图层_1" data-name="图层 1" xmlns="http://www.w3.org/2000/svg" viewBox="0 0 420 300"><defs><style>.cls-1{fill:#c3d1d1;}.cls-2{fill:#00b9ff;}</style></defs><title>点阵屏</title><rect class="cls-1" x="1" y="1" width="28" height="28" rx="5.72" ry="5.72" transform="translate(30 0) rotate(90)"/><rect class="cls-1" x="31" y="1" width="28" height="28" rx="5.72" ry="5.72" transform="translate(60 -30) rotate(90)"/><rect class="cls-1" x="61" y="1" width="28" height="28" rx="5.72" ry="5.72" transform="translate(90 -60) rotate(90)"/><rect class="cls-1" x="91" y="1" width="28" height="28" rx="5.72" ry="5.72" transform="translate(120 -90) rotate(90)"/><rect class="cls-1" x="121" y="1" width="28" height="28" rx="5.72" ry="5.72" transform="translate(150 -120) rotate(90)"/><rect class="cls-1" x="151" y="1" width="28" height="28" rx="5.72" ry="5.72" transform="translate(180 -150) rotate(90)"/><rect class="cls-1" x="181" y="1" width="28" height="28" rx="5.72" ry="5.72" transform="translate(210 -180) rotate(90)"/><rect class="cls-1" x="211" y="1" width="28" height="28" rx="5.72" ry="5.72" transform="translate(240 -210) rotate(90)"/><rect class="cls-1" x="241" y="1" width="28" height="28" rx="5.72" ry="5.72" transform="translate(270 -240) rotate(90)"/><rect class="cls-1" x="271" y="1" width="28" height="28" rx="5.72" ry="5.72" transform="translate(300 -270) rotate(90)"/><rect class="cls-1" x="301" y="1" width="28" height="28" rx="5.72" ry="5.72" transform="translate(330 -300) rotate(90)"/><rect class="cls-1" x="331" y="1" width="28" height="28" rx="5.72" ry="5.72" transform="translate(360 -330) rotate(90)"/><rect class="cls-1" x="361" y="1" width="28" height="28" rx="5.72" ry="5.72" transform="translate(390 -360) rotate(90)"/><rect class="cls-1" x="391" y="1" width="28" height="28" rx="5.72" ry="5.72" transform="translate(420 -390) rotate(90)"/><rect class="cls-1" x="1" y="31" width="28" height="28" rx="5.72" ry="5.72" transform="translate(60 30) rotate(90)"/><rect class="cls-1" x="31" y="31" width="28" height="28" rx="5.72" ry="5.72" transform="translate(90) rotate(90)"/><rect class="cls-1" x="61" y="31" width="28" height="28" rx="5.72" ry="5.72" transform="translate(120 -30) rotate(90)"/><rect class="cls-1" x="91" y="31" width="28" height="28" rx="5.72" ry="5.72" transform="translate(150 -60) rotate(90)"/><rect class="cls-1" x="121" y="31" width="28" height="28" rx="5.72" ry="5.72" transform="translate(180 -90) rotate(90)"/><rect class="cls-1" x="151" y="31" width="28" height="28" rx="5.72" ry="5.72" transform="translate(210 -120) rotate(90)"/><rect class="cls-1" x="181" y="31" width="28" height="28" rx="5.72" ry="5.72" transform="translate(240 -150) rotate(90)"/><rect class="cls-1" x="211" y="31" width="28" height="28" rx="5.72" ry="5.72" transform="translate(270 -180) rotate(90)"/><rect class="cls-1" x="241" y="31" width="28" height="28" rx="5.72" ry="5.72" transform="translate(300 -210) rotate(90)"/><rect class="cls-1" x="271" y="31" width="28" height="28" rx="5.72" ry="5.72" transform="translate(330 -240) rotate(90)"/><rect class="cls-1" x="301" y="31" width="28" height="28" rx="5.72" ry="5.72" transform="translate(360 -270) rotate(90)"/><rect class="cls-1" x="331" y="31" width="28" height="28" rx="5.72" ry="5.72" transform="translate(390 -300) rotate(90)"/><rect class="cls-1" x="361" y="31" width="28" height="28" rx="5.72" ry="5.72" transform="translate(420 -330) rotate(90)"/><rect class="cls-1" x="391" y="31" width="28" height="28" rx="5.72" ry="5.72" transform="translate(450 -360) rotate(90)"/><rect class="cls-1" x="1" y="61" width="28" height="28" rx="5.72" ry="5.72" transform="translate(90 60) rotate(90)"/><rect class="cls-1" x="31" y="61" width="28" height="28" rx="5.72" ry="5.72" transform="translate(120 30) rotate(90)"/><rect class="cls-1" x="61" y="61" width="28" height="28" rx="5.72" ry="5.72" transform="translate(150) rotate(90)"/><rect class="cls-1" x="91" y="61" width="28" height="28" rx="5.72" ry="5.72" transform="translate(180 -30) rotate(90)"/><rect class="cls-1" x="121" y="61" width="28" height="28" rx="5.72" ry="5.72" transform="translate(210 -60) rotate(90)"/><rect class="cls-1" x="151" y="61" width="28" height="28" rx="5.72" ry="5.72" transform="translate(240 -90) rotate(90)"/><rect class="cls-1" x="181" y="61" width="28" height="28" rx="5.72" ry="5.72" transform="translate(270 -120) rotate(90)"/><rect class="cls-1" x="211" y="61" width="28" height="28" rx="5.72" ry="5.72" transform="translate(300 -150) rotate(90)"/><rect class="cls-1" x="241" y="61" width="28" height="28" rx="5.72" ry="5.72" transform="translate(330 -180) rotate(90)"/><rect class="cls-1" x="271" y="61" width="28" height="28" rx="5.72" ry="5.72" transform="translate(360 -210) rotate(90)"/><rect class="cls-1" x="301" y="61" width="28" height="28" rx="5.72" ry="5.72" transform="translate(390 -240) rotate(90)"/><rect class="cls-1" x="331" y="61" width="28" height="28" rx="5.72" ry="5.72" transform="translate(420 -270) rotate(90)"/><rect class="cls-1" x="361" y="61" width="28" height="28" rx="5.72" ry="5.72" transform="translate(450 -300) rotate(90)"/><rect class="cls-1" x="391" y="61" width="28" height="28" rx="5.72" ry="5.72" transform="translate(480 -330) rotate(90)"/><rect class="cls-1" x="1" y="91" width="28" height="28" rx="5.72" ry="5.72" transform="translate(120 90) rotate(90)"/><rect class="cls-1" x="31" y="91" width="28" height="28" rx="5.72" ry="5.72" transform="translate(150 60) rotate(90)"/><rect class="cls-1" x="61" y="91" width="28" height="28" rx="5.72" ry="5.72" transform="translate(180 30) rotate(90)"/><rect class="cls-2" x="91" y="91" width="28" height="28" rx="5.72" ry="5.72" transform="translate(210) rotate(90)"/><rect class="cls-2" x="121" y="91" width="28" height="28" rx="5.72" ry="5.72" transform="translate(240 -30) rotate(90)"/><rect class="cls-2" x="151" y="91" width="28" height="28" rx="5.72" ry="5.72" transform="translate(270 -60) rotate(90)"/><rect class="cls-1" x="181" y="91" width="28" height="28" rx="5.72" ry="5.72" transform="translate(300 -90) rotate(90)"/><rect class="cls-1" x="211" y="91" width="28" height="28" rx="5.72" ry="5.72" transform="translate(330 -120) rotate(90)"/><rect class="cls-2" x="241" y="91" width="28" height="28" rx="5.72" ry="5.72" transform="translate(360 -150) rotate(90)"/><rect class="cls-2" x="271" y="91" width="28" height="28" rx="5.72" ry="5.72" transform="translate(390 -180) rotate(90)"/><rect class="cls-2" x="301" y="91" width="28" height="28" rx="5.72" ry="5.72" transform="translate(420 -210) rotate(90)"/><rect class="cls-1" x="331" y="91" width="28" height="28" rx="5.72" ry="5.72" transform="translate(450 -240) rotate(90)"/><rect class="cls-1" x="361" y="91" width="28" height="28" rx="5.72" ry="5.72" transform="translate(480 -270) rotate(90)"/><rect class="cls-1" x="391" y="91" width="28" height="28" rx="5.72" ry="5.72" transform="translate(510 -300) rotate(90)"/><rect class="cls-1" x="1" y="121" width="28" height="28" rx="5.72" ry="5.72" transform="translate(150 120) rotate(90)"/><rect class="cls-1" x="31" y="121" width="28" height="28" rx="5.72" ry="5.72" transform="translate(180 90) rotate(90)"/><rect class="cls-1" x="61" y="121" width="28" height="28" rx="5.72" ry="5.72" transform="translate(210 60) rotate(90)"/><rect class="cls-1" x="91" y="121" width="28" height="28" rx="5.72" ry="5.72" transform="translate(240 30) rotate(90)"/><rect class="cls-1" x="121" y="121" width="28" height="28" rx="5.72" ry="5.72" transform="translate(270) rotate(90)"/><rect class="cls-1" x="151" y="121" width="28" height="28" rx="5.72" ry="5.72" transform="translate(300 -30) rotate(90)"/><rect class="cls-1" x="181" y="121" width="28" height="28" rx="5.72" ry="5.72" transform="translate(330 -60) rotate(90)"/><rect class="cls-1" x="211" y="121" width="28" height="28" rx="5.72" ry="5.72" transform="translate(360 -90) rotate(90)"/><rect class="cls-1" x="241" y="121" width="28" height="28" rx="5.72" ry="5.72" transform="translate(390 -120) rotate(90)"/><rect class="cls-1" x="271" y="121" width="28" height="28" rx="5.72" ry="5.72" transform="translate(420 -150) rotate(90)"/><rect class="cls-1" x="301" y="121" width="28" height="28" rx="5.72" ry="5.72" transform="translate(450 -180) rotate(90)"/><rect class="cls-1" x="331" y="121" width="28" height="28" rx="5.72" ry="5.72" transform="translate(480 -210) rotate(90)"/><rect class="cls-1" x="361" y="121" width="28" height="28" rx="5.72" ry="5.72" transform="translate(510 -240) rotate(90)"/><rect class="cls-1" x="391" y="121" width="28" height="28" rx="5.72" ry="5.72" transform="translate(540 -270) rotate(90)"/><rect class="cls-1" x="1" y="151" width="28" height="28" rx="5.72" ry="5.72" transform="translate(180 150) rotate(90)"/><rect class="cls-1" x="31" y="151" width="28" height="28" rx="5.72" ry="5.72" transform="translate(210 120) rotate(90)"/><rect class="cls-1" x="61" y="151" width="28" height="28" rx="5.72" ry="5.72" transform="translate(240 90) rotate(90)"/><rect class="cls-1" x="91" y="151" width="28" height="28" rx="5.72" ry="5.72" transform="translate(270 60) rotate(90)"/><rect class="cls-1" x="121" y="151" width="28" height="28" rx="5.72" ry="5.72" transform="translate(300 30) rotate(90)"/><rect class="cls-1" x="151" y="151" width="28" height="28" rx="5.72" ry="5.72" transform="translate(330) rotate(90)"/><rect class="cls-1" x="181" y="151" width="28" height="28" rx="5.72" ry="5.72" transform="translate(360 -30) rotate(90)"/><rect class="cls-1" x="211" y="151" width="28" height="28" rx="5.72" ry="5.72" transform="translate(390 -60) rotate(90)"/><rect class="cls-1" x="241" y="151" width="28" height="28" rx="5.72" ry="5.72" transform="translate(420 -90) rotate(90)"/><rect class="cls-1" x="271" y="151" width="28" height="28" rx="5.72" ry="5.72" transform="translate(450 -120) rotate(90)"/><rect class="cls-1" x="301" y="151" width="28" height="28" rx="5.72" ry="5.72" transform="translate(480 -150) rotate(90)"/><rect class="cls-1" x="331" y="151" width="28" height="28" rx="5.72" ry="5.72" transform="translate(510 -180) rotate(90)"/><rect class="cls-1" x="361" y="151" width="28" height="28" rx="5.72" ry="5.72" transform="translate(540 -210) rotate(90)"/><rect class="cls-1" x="391" y="151" width="28" height="28" rx="5.72" ry="5.72" transform="translate(570 -240) rotate(90)"/><rect class="cls-1" x="1" y="181" width="28" height="28" rx="5.72" ry="5.72" transform="translate(210 180) rotate(90)"/><rect class="cls-1" x="31" y="181" width="28" height="28" rx="5.72" ry="5.72" transform="translate(240 150) rotate(90)"/><rect class="cls-1" x="61" y="181" width="28" height="28" rx="5.72" ry="5.72" transform="translate(270 120) rotate(90)"/><rect class="cls-1" x="91" y="181" width="28" height="28" rx="5.72" ry="5.72" transform="translate(300 90) rotate(90)"/><rect class="cls-1" x="121" y="181" width="28" height="28" rx="5.72" ry="5.72" transform="translate(330 60) rotate(90)"/><rect class="cls-1" x="151" y="181" width="28" height="28" rx="5.72" ry="5.72" transform="translate(360 30) rotate(90)"/><rect class="cls-2" x="181" y="181" width="28" height="28" rx="5.72" ry="5.72" transform="translate(390) rotate(90)"/><rect class="cls-2" x="211" y="181" width="28" height="28" rx="5.72" ry="5.72" transform="translate(420 -30) rotate(90)"/><rect class="cls-1" x="241" y="181" width="28" height="28" rx="5.72" ry="5.72" transform="translate(450 -60) rotate(90)"/><rect class="cls-1" x="271" y="181" width="28" height="28" rx="5.72" ry="5.72" transform="translate(480 -90) rotate(90)"/><rect class="cls-1" x="301" y="181" width="28" height="28" rx="5.72" ry="5.72" transform="translate(510 -120) rotate(90)"/><rect class="cls-1" x="331" y="181" width="28" height="28" rx="5.72" ry="5.72" transform="translate(540 -150) rotate(90)"/><rect class="cls-1" x="361" y="181" width="28" height="28" rx="5.72" ry="5.72" transform="translate(570 -180) rotate(90)"/><rect class="cls-1" x="391" y="181" width="28" height="28" rx="5.72" ry="5.72" transform="translate(600 -210) rotate(90)"/><rect class="cls-1" x="1" y="211" width="28" height="28" rx="5.72" ry="5.72" transform="translate(240 210) rotate(90)"/><rect class="cls-1" x="31" y="211" width="28" height="28" rx="5.72" ry="5.72" transform="translate(270 180) rotate(90)"/><rect class="cls-1" x="61" y="211" width="28" height="28" rx="5.72" ry="5.72" transform="translate(300 150) rotate(90)"/><rect class="cls-1" x="91" y="211" width="28" height="28" rx="5.72" ry="5.72" transform="translate(330 120) rotate(90)"/><rect class="cls-1" x="121" y="211" width="28" height="28" rx="5.72" ry="5.72" transform="translate(360 90) rotate(90)"/><rect class="cls-2" x="151" y="211" width="28" height="28" rx="5.72" ry="5.72" transform="translate(390 60) rotate(90)"/><rect class="cls-2" x="181" y="211" width="28" height="28" rx="5.72" ry="5.72" transform="translate(420 30) rotate(90)"/><rect class="cls-2" x="211" y="211" width="28" height="28" rx="5.72" ry="5.72" transform="translate(450) rotate(90)"/><rect class="cls-2" x="241" y="211" width="28" height="28" rx="5.72" ry="5.72" transform="translate(480 -30) rotate(90)"/><rect class="cls-1" x="271" y="211" width="28" height="28" rx="5.72" ry="5.72" transform="translate(510 -60) rotate(90)"/><rect class="cls-1" x="301" y="211" width="28" height="28" rx="5.72" ry="5.72" transform="translate(540 -90) rotate(90)"/><rect class="cls-1" x="331" y="211" width="28" height="28" rx="5.72" ry="5.72" transform="translate(570 -120) rotate(90)"/><rect class="cls-1" x="361" y="211" width="28" height="28" rx="5.72" ry="5.72" transform="translate(600 -150) rotate(90)"/><rect class="cls-1" x="391" y="211" width="28" height="28" rx="5.72" ry="5.72" transform="translate(630 -180) rotate(90)"/><rect class="cls-1" x="1" y="241" width="28" height="28" rx="5.72" ry="5.72" transform="translate(270 240) rotate(90)"/><rect class="cls-1" x="31" y="241" width="28" height="28" rx="5.72" ry="5.72" transform="translate(300 210) rotate(90)"/><rect class="cls-1" x="61" y="241" width="28" height="28" rx="5.72" ry="5.72" transform="translate(330 180) rotate(90)"/><rect class="cls-1" x="91" y="241" width="28" height="28" rx="5.72" ry="5.72" transform="translate(360 150) rotate(90)"/><rect class="cls-1" x="121" y="241" width="28" height="28" rx="5.72" ry="5.72" transform="translate(390 120) rotate(90)"/><rect class="cls-1" x="151" y="241" width="28" height="28" rx="5.72" ry="5.72" transform="translate(420 90) rotate(90)"/><rect class="cls-2" x="181" y="241" width="28" height="28" rx="5.72" ry="5.72" transform="translate(450 60) rotate(90)"/><rect class="cls-2" x="211" y="241" width="28" height="28" rx="5.72" ry="5.72" transform="translate(480 30) rotate(90)"/><rect class="cls-1" x="241" y="241" width="28" height="28" rx="5.72" ry="5.72" transform="translate(510 0) rotate(90)"/><rect class="cls-1" x="271" y="241" width="28" height="28" rx="5.72" ry="5.72" transform="translate(540 -30) rotate(90)"/><rect class="cls-1" x="301" y="241" width="28" height="28" rx="5.72" ry="5.72" transform="translate(570 -60) rotate(90)"/><rect class="cls-1" x="331" y="241" width="28" height="28" rx="5.72" ry="5.72" transform="translate(600 -90) rotate(90)"/><rect class="cls-1" x="361" y="241" width="28" height="28" rx="5.72" ry="5.72" transform="translate(630 -120) rotate(90)"/><rect class="cls-1" x="391" y="241" width="28" height="28" rx="5.72" ry="5.72" transform="translate(660 -150) rotate(90)"/><rect class="cls-1" x="1" y="271" width="28" height="28" rx="5.72" ry="5.72" transform="translate(300 270) rotate(90)"/><rect class="cls-1" x="31" y="271" width="28" height="28" rx="5.72" ry="5.72" transform="translate(330 240) rotate(90)"/><rect class="cls-1" x="61" y="271" width="28" height="28" rx="5.72" ry="5.72" transform="translate(360 210) rotate(90)"/><rect class="cls-1" x="91" y="271" width="28" height="28" rx="5.72" ry="5.72" transform="translate(390 180) rotate(90)"/><rect class="cls-1" x="121" y="271" width="28" height="28" rx="5.72" ry="5.72" transform="translate(420 150) rotate(90)"/><rect class="cls-1" x="151" y="271" width="28" height="28" rx="5.72" ry="5.72" transform="translate(450 120) rotate(90)"/><rect class="cls-1" x="181" y="271" width="28" height="28" rx="5.72" ry="5.72" transform="translate(480 90) rotate(90)"/><rect class="cls-1" x="211" y="271" width="28" height="28" rx="5.72" ry="5.72" transform="translate(510 60) rotate(90)"/><rect class="cls-1" x="241" y="271" width="28" height="28" rx="5.72" ry="5.72" transform="translate(540 30) rotate(90)"/><rect class="cls-1" x="271" y="271" width="28" height="28" rx="5.72" ry="5.72" transform="translate(570) rotate(90)"/><rect class="cls-1" x="301" y="271" width="28" height="28" rx="5.72" ry="5.72" transform="translate(600 -30) rotate(90)"/><rect class="cls-1" x="331" y="271" width="28" height="28" rx="5.72" ry="5.72" transform="translate(630 -60) rotate(90)"/><rect class="cls-1" x="361" y="271" width="28" height="28" rx="5.72" ry="5.72" transform="translate(660 -90) rotate(90)"/><rect class="cls-1" x="391" y="271" width="28" height="28" rx="5.72" ry="5.72" transform="translate(690 -120) rotate(90)"/></svg>