<svg class="icon" style="vertical-align: middle;fill: currentColor;overflow: hidden;" viewBox="0 0 1024 1024" version="1.1" xmlns="http://www.w3.org/2000/svg" p-id="4033"><path d="M512 810.666667c-152.917333 0-277.333333-124.416-277.333333-277.333333L234.666667 277.333333c0-152.917333 124.416-277.333333 277.333333-277.333333s277.333333 124.416 277.333333 277.333333l0 256C789.333333 686.250667 664.917333 810.666667 512 810.666667zM512 42.666667c-129.386667 0-234.666667 105.28-234.666667 234.666667l0 256c0 129.386667 105.28 234.666667 234.666667 234.666667s234.666667-105.28 234.666667-234.666667L746.666667 277.333333C746.666667 147.946667 641.386667 42.666667 512 42.666667zM512 896c-203.349333 0-362.666667-159.296-362.666667-362.666667l0-85.333333c0-11.776 9.536-21.333333 21.333333-21.333333s21.333333 9.557333 21.333333 21.333333l0 85.333333c0 179.434667 140.565333 320 320 320s320-140.565333 320-320l0-85.333333c0-11.776 9.536-21.333333 21.333333-21.333333s21.333333 9.557333 21.333333 21.333333l0 85.333333C874.666667 736.704 715.349333 896 512 896zM490.666667 874.666667l42.666667 0 0 149.333333-42.666667 0 0-149.333333ZM512 170.666667c-11.797333 0-21.333333-9.557333-21.333333-21.333333L490.666667 21.333333c0-11.776 9.536-21.333333 21.333333-21.333333s21.333333 9.557333 21.333333 21.333333l0 128C533.333333 161.109333 523.797333 170.666667 512 170.666667zM597.333333 170.666667c-11.797333 0-21.333333-9.557333-21.333333-21.333333L576 35.904c0-11.776 9.536-21.333333 21.333333-21.333333s21.333333 9.557333 21.333333 21.333333L618.666667 149.333333C618.666667 161.109333 609.130667 170.666667 597.333333 170.666667zM426.666667 170.666667c-11.797333 0-21.333333-9.557333-21.333333-21.333333L405.333333 35.904c0-11.776 9.536-21.333333 21.333333-21.333333s21.333333 9.557333 21.333333 21.333333L448 149.333333C448 161.109333 438.464 170.666667 426.666667 170.666667zM170.666667 512l682.666667 0 0 42.666667-682.666667 0 0-42.666667ZM426.666667 298.666667l-170.666667 0c-11.797333 0-21.333333-9.557333-21.333333-21.333333s9.536-21.333333 21.333333-21.333333l170.666667 0c11.797333 0 21.333333 9.557333 21.333333 21.333333S438.464 298.666667 426.666667 298.666667zM426.666667 384l-170.666667 0c-11.797333 0-21.333333-9.557333-21.333333-21.333333s9.536-21.333333 21.333333-21.333333l170.666667 0c11.797333 0 21.333333 9.557333 21.333333 21.333333S438.464 384 426.666667 384zM768 298.666667l-170.666667 0c-11.797333 0-21.333333-9.557333-21.333333-21.333333s9.536-21.333333 21.333333-21.333333l170.666667 0c11.797333 0 21.333333 9.557333 21.333333 21.333333S779.797333 298.666667 768 298.666667zM768 384l-170.666667 0c-11.797333 0-21.333333-9.557333-21.333333-21.333333s9.536-21.333333 21.333333-21.333333l170.666667 0c11.797333 0 21.333333 9.557333 21.333333 21.333333S779.797333 384 768 384zM426.666667 469.333333l-170.666667 0c-11.797333 0-21.333333-9.557333-21.333333-21.333333s9.536-21.333333 21.333333-21.333333l170.666667 0c11.797333 0 21.333333 9.557333 21.333333 21.333333S438.464 469.333333 426.666667 469.333333zM768 469.333333l-170.666667 0c-11.797333 0-21.333333-9.557333-21.333333-21.333333s9.536-21.333333 21.333333-21.333333l170.666667 0c11.797333 0 21.333333 9.557333 21.333333 21.333333S779.797333 469.333333 768 469.333333z" p-id="4034"></path></svg>