<svg id="图层_1" data-name="图层 1" xmlns="http://www.w3.org/2000/svg" viewBox="0 0 24 24"><defs><style>.cls-1{fill:#fff;}.cls-2{fill:#05d380;}</style></defs><title>usb连接状态</title><circle class="cls-1" cx="12" cy="12" r="12"/><path class="cls-2" d="M10.51,7.2A.51.51,0,1,1,11,6.69a.51.51,0,0,1-.51.51Zm0-.82a.32.32,0,1,0,.32.32.32.32,0,0,0-.32-.32Zm0,0"/><path class="cls-2" d="M12,19.22A5.34,5.34,0,0,1,6.68,13.9V9.18a.47.47,0,0,1,.47-.47h9.7a.47.47,0,0,1,.47.47V13.9A5.34,5.34,0,0,1,12,19.22Z"/><path class="cls-2" d="M7.63,9.66V13.9a4.38,4.38,0,0,0,8.75,0V9.66Z"/><path class="cls-2" d="M14.88,9.66H9.12a.47.47,0,0,1-.47-.47V5.25a.47.47,0,0,1,.47-.47h5.77a.47.47,0,0,1,.47.47V9.18a.48.48,0,0,1-.47.47ZM9.59,8.71h4.82v-3H9.59Zm0,0"/><path class="cls-2" d="M10.1,6.69a.41.41,0,1,0,.41-.41.41.41,0,0,0-.41.41Zm0,0"/><path class="cls-2" d="M13.08,6.69a.41.41,0,1,0,.2-.35.41.41,0,0,0-.2.35Zm0,0"/><path class="cls-2" d="M13.49,7.2A.51.51,0,1,1,14,6.69a.51.51,0,0,1-.51.51Zm0-.82a.32.32,0,1,0,.32.32.32.32,0,0,0-.32-.32Zm0,0"/></svg>