<svg id="图层_1" data-name="图层 1" xmlns="http://www.w3.org/2000/svg" viewBox="0 0 24 24"><defs><style>.cls-1{fill:#ccc;}.cls-2{fill:#666;}</style></defs><title>usb连接状态</title><ellipse class="cls-1" cx="12" cy="12" rx="11.97" ry="12.03"/><path class="cls-2" d="M10.35,7.4a.51.51,0,1,1,.5-.51.51.51,0,0,1-.5.51Zm0-.82a.32.32,0,1,0,.32.32.32.32,0,0,0-.32-.32Zm0,0"/><path class="cls-2" d="M11.83,19.45a5.25,5.25,0,0,1-3.75-1.57,5.32,5.32,0,0,1-1.56-3.77V9.39A.47.47,0,0,1,7,8.91h9.67a.47.47,0,0,1,.47.48v4.73a5.3,5.3,0,0,1-1.56,3.77,5.24,5.24,0,0,1-3.75,1.57ZM7.47,9.86v4.26a4.36,4.36,0,1,0,8.73,0V9.86Zm0,0"/><path class="cls-2" d="M14.71,9.86H9a.47.47,0,0,1-.47-.48V5.45A.47.47,0,0,1,9,5h5.75a.47.47,0,0,1,.47.48V9.39a.48.48,0,0,1-.47.48Zm-5.28-1h4.81v-3H9.43Zm0,0"/><path class="cls-2" d="M9.94,6.89a.41.41,0,1,0,.41-.41.41.41,0,0,0-.41.41Zm0,0"/><path class="cls-2" d="M12.91,6.89a.41.41,0,0,0,.2.36.41.41,0,0,0,.41,0,.41.41,0,0,0,0-.71.41.41,0,0,0-.41,0,.41.41,0,0,0-.2.36Zm0,0"/><path class="cls-2" d="M13.32,7.4a.51.51,0,1,1,.5-.51.51.51,0,0,1-.5.51Zm0-.82a.32.32,0,1,0,.32.32.32.32,0,0,0-.32-.32Zm0,0"/></svg>