<svg id="图层_1" data-name="图层 1" xmlns="http://www.w3.org/2000/svg" viewBox="0 0 24 24"><defs><style>.cls-1{fill:#fff;}.cls-2{fill:none;stroke:#05d380;stroke-miterlimit:10;}.cls-3{fill:#05d380;}</style></defs><title>usb连接状态</title><circle class="cls-1" cx="12" cy="12" r="12"/><path class="cls-2" d="M16.35,8.6l-3.7,3.3a.2.2,0,0,1-.33-.15V5.15A.2.2,0,0,1,12.65,5l3.7,3.3A.2.2,0,0,1,16.35,8.6Z"/><path class="cls-2" d="M16.35,15.7,12.65,19a.2.2,0,0,1-.33-.15V12.24a.2.2,0,0,1,.33-.15l3.7,3.3A.2.2,0,0,1,16.35,15.7Z"/><rect class="cls-3" x="9.67" y="6.97" width="1" height="6.54" rx="0.5" ry="0.5" transform="translate(-4.23 11.14) rotate(-48.77)"/><rect class="cls-3" x="9.65" y="11.02" width="1" height="6.54" rx="0.5" ry="0.5" transform="translate(6.29 31.39) rotate(-131.93)"/></svg>